<mxGraphModel dx="1538" dy="914" grid="1" gridSize="10" guides="1" tooltips="1" connect="1" arrows="1" fold="1" page="0" pageScale="1" pageWidth="827" pageHeight="1169" math="0" shadow="0"><root><mxCell id="0"/><mxCell id="1" parent="0"/><mxCell id="156" value="" style="whiteSpace=wrap;html=1;strokeColor=none;" parent="1" vertex="1"><mxGeometry x="-620" y="220" width="960" height="690" as="geometry"/></mxCell><mxCell id="58" value="" style="whiteSpace=wrap;html=1;" parent="1" vertex="1"><mxGeometry x="-600" y="255" width="380" height="435" as="geometry"/></mxCell><mxCell id="47" value="" style="whiteSpace=wrap;html=1;" parent="1" vertex="1"><mxGeometry x="-400" y="290" width="150" height="380" as="geometry"/></mxCell><mxCell id="46" value="" style="whiteSpace=wrap;html=1;dashed=1;strokeColor=#FF0000;" parent="1" vertex="1"><mxGeometry x="-380" y="320" width="110" height="190" as="geometry"/></mxCell><mxCell id="37" value="局部变量表" style="whiteSpace=wrap;html=1;fillColor=#dae8fc;strokeColor=#6c8ebf;" parent="1" vertex="1"><mxGeometry x="-365" y="350" width="80" height="30" as="geometry"/></mxCell><mxCell id="38" value="操作数栈" style="whiteSpace=wrap;html=1;fillColor=#dae8fc;strokeColor=#6c8ebf;" parent="1" vertex="1"><mxGeometry x="-365" y="390" width="80" height="30" as="geometry"/></mxCell><mxCell id="39" value="动态链接" style="whiteSpace=wrap;html=1;fillColor=#dae8fc;strokeColor=#6c8ebf;" parent="1" vertex="1"><mxGeometry x="-365" y="430" width="80" height="30" as="geometry"/></mxCell><mxCell id="40" value="方法返回值" style="whiteSpace=wrap;html=1;fillColor=#dae8fc;strokeColor=#6c8ebf;" parent="1" vertex="1"><mxGeometry x="-365" y="470" width="80" height="30" as="geometry"/></mxCell><mxCell id="41" value="当前栈帧" style="text;html=1;align=center;verticalAlign=middle;resizable=0;points=[];autosize=1;strokeColor=none;" parent="1" vertex="1"><mxGeometry x="-355" y="326" width="60" height="20" as="geometry"/></mxCell><mxCell id="42" value="栈帧n" style="whiteSpace=wrap;html=1;dashed=1;" parent="1" vertex="1"><mxGeometry x="-380" y="520" width="110" height="30" as="geometry"/></mxCell><mxCell id="43" value="栈帧2" style="whiteSpace=wrap;html=1;dashed=1;" parent="1" vertex="1"><mxGeometry x="-380" y="580" width="110" height="30" as="geometry"/></mxCell><mxCell id="44" value="栈帧1" style="whiteSpace=wrap;html=1;dashed=1;fillColor=#1ba1e2;fontColor=#ffffff;strokeColor=#006EAF;" parent="1" vertex="1"><mxGeometry x="-380" y="620" width="110" height="30" as="geometry"/></mxCell><mxCell id="45" value="......" style="text;html=1;align=center;verticalAlign=middle;resizable=0;points=[];autosize=1;strokeColor=none;" parent="1" vertex="1"><mxGeometry x="-345" y="550" width="40" height="20" as="geometry"/></mxCell><mxCell id="49" value="Java栈" style="text;html=1;align=center;verticalAlign=middle;resizable=0;points=[];autosize=1;strokeColor=none;" parent="1" vertex="1"><mxGeometry x="-350" y="295" width="50" height="20" as="geometry"/></mxCell><mxCell id="55" style="html=1;exitX=0.5;exitY=0;exitDx=0;exitDy=0;entryX=0;entryY=0.5;entryDx=0;entryDy=0;" parent="1" source="54" target="38" edge="1"><mxGeometry relative="1" as="geometry"/></mxCell><mxCell id="54" value="执行引擎" style="ellipse;whiteSpace=wrap;html=1;fillColor=#0050ef;strokeColor=#001DBC;fontColor=#ffffff;" parent="1" vertex="1"><mxGeometry x="-580" y="410" width="120" height="50" as="geometry"/></mxCell><mxCell id="57" style="edgeStyle=none;html=1;exitX=0.5;exitY=0;exitDx=0;exitDy=0;entryX=0;entryY=0.5;entryDx=0;entryDy=0;strokeColor=#000000;" parent="1" source="56" target="38" edge="1"><mxGeometry relative="1" as="geometry"/></mxCell><mxCell id="56" value="PC寄存器" style="whiteSpace=wrap;html=1;fillColor=#f0a30a;strokeColor=#BD7000;fontColor=#000000;" parent="1" vertex="1"><mxGeometry x="-580" y="560" width="120" height="60" as="geometry"/></mxCell><mxCell id="K0YOVZaIvxG3RlKweVM_-58" value="&lt;font style=&quot;font-size: 18px&quot;&gt;线程&lt;/font&gt;" style="text;html=1;align=center;verticalAlign=middle;resizable=0;points=[];autosize=1;strokeColor=none;fillColor=none;" parent="1" vertex="1"><mxGeometry x="-585" y="270" width="50" height="20" as="geometry"/></mxCell><mxCell id="gQs-8r4IaeLqTZhzpy98-156" value="" style="whiteSpace=wrap;html=1;fillColor=#1ba1e2;strokeColor=#006EAF;fontColor=#ffffff;" parent="1" vertex="1"><mxGeometry x="-600" y="740" width="540" height="130" as="geometry"/></mxCell><mxCell id="gQs-8r4IaeLqTZhzpy98-157" value="栈帧" style="text;html=1;align=center;verticalAlign=middle;resizable=0;points=[];autosize=1;strokeColor=none;fillColor=none;" parent="1" vertex="1"><mxGeometry x="-600" y="740" width="50" height="30" as="geometry"/></mxCell><mxCell id="gQs-8r4IaeLqTZhzpy98-158" value="&amp;nbsp;Return Value" style="rounded=0;whiteSpace=wrap;html=1;strokeColor=default;" parent="1" vertex="1"><mxGeometry x="-585" y="810" width="100" height="30" as="geometry"/></mxCell><mxCell id="gQs-8r4IaeLqTZhzpy98-159" value="" style="rounded=0;whiteSpace=wrap;html=1;strokeColor=default;" parent="1" vertex="1"><mxGeometry x="-450" y="810" width="160" height="30" as="geometry"/></mxCell><mxCell id="gQs-8r4IaeLqTZhzpy98-160" style="edgeStyle=orthogonalEdgeStyle;rounded=0;orthogonalLoop=1;jettySize=auto;html=1;exitX=0.25;exitY=0;exitDx=0;exitDy=0;entryX=0.25;entryY=1;entryDx=0;entryDy=0;endArrow=none;endFill=0;" parent="1" source="gQs-8r4IaeLqTZhzpy98-159" target="gQs-8r4IaeLqTZhzpy98-159" edge="1"><mxGeometry relative="1" as="geometry"/></mxCell><mxCell id="gQs-8r4IaeLqTZhzpy98-161" style="edgeStyle=orthogonalEdgeStyle;rounded=0;orthogonalLoop=1;jettySize=auto;html=1;exitX=0.5;exitY=0;exitDx=0;exitDy=0;entryX=0.5;entryY=1;entryDx=0;entryDy=0;endArrow=none;endFill=0;" parent="1" source="gQs-8r4IaeLqTZhzpy98-159" target="gQs-8r4IaeLqTZhzpy98-159" edge="1"><mxGeometry relative="1" as="geometry"/></mxCell><mxCell id="gQs-8r4IaeLqTZhzpy98-162" style="edgeStyle=orthogonalEdgeStyle;rounded=0;orthogonalLoop=1;jettySize=auto;html=1;exitX=0.75;exitY=0;exitDx=0;exitDy=0;entryX=0.75;entryY=1;entryDx=0;entryDy=0;endArrow=none;endFill=0;" parent="1" source="gQs-8r4IaeLqTZhzpy98-159" target="gQs-8r4IaeLqTZhzpy98-159" edge="1"><mxGeometry relative="1" as="geometry"/></mxCell><mxCell id="gQs-8r4IaeLqTZhzpy98-163" value="本地变量表" style="text;html=1;align=center;verticalAlign=middle;resizable=0;points=[];autosize=1;strokeColor=none;fillColor=none;" parent="1" vertex="1"><mxGeometry x="-420" y="780" width="80" height="30" as="geometry"/></mxCell><mxCell id="gQs-8r4IaeLqTZhzpy98-164" value="" style="rounded=0;whiteSpace=wrap;html=1;strokeColor=default;rotation=90;" parent="1" vertex="1"><mxGeometry x="-270" y="800" width="100" height="30" as="geometry"/></mxCell><mxCell id="gQs-8r4IaeLqTZhzpy98-165" style="edgeStyle=orthogonalEdgeStyle;rounded=0;orthogonalLoop=1;jettySize=auto;html=1;exitX=0.25;exitY=1;exitDx=0;exitDy=0;entryX=0.25;entryY=0;entryDx=0;entryDy=0;endArrow=none;endFill=0;" parent="1" source="gQs-8r4IaeLqTZhzpy98-164" target="gQs-8r4IaeLqTZhzpy98-164" edge="1"><mxGeometry relative="1" as="geometry"/></mxCell><mxCell id="gQs-8r4IaeLqTZhzpy98-166" style="edgeStyle=orthogonalEdgeStyle;rounded=0;orthogonalLoop=1;jettySize=auto;html=1;exitX=0.5;exitY=1;exitDx=0;exitDy=0;entryX=0.5;entryY=0;entryDx=0;entryDy=0;endArrow=none;endFill=0;" parent="1" source="gQs-8r4IaeLqTZhzpy98-164" target="gQs-8r4IaeLqTZhzpy98-164" edge="1"><mxGeometry relative="1" as="geometry"/></mxCell><mxCell id="gQs-8r4IaeLqTZhzpy98-167" style="edgeStyle=orthogonalEdgeStyle;rounded=0;orthogonalLoop=1;jettySize=auto;html=1;exitX=0.75;exitY=1;exitDx=0;exitDy=0;entryX=0.75;entryY=0;entryDx=0;entryDy=0;endArrow=none;endFill=0;" parent="1" source="gQs-8r4IaeLqTZhzpy98-164" target="gQs-8r4IaeLqTZhzpy98-164" edge="1"><mxGeometry relative="1" as="geometry"/></mxCell><mxCell id="gQs-8r4IaeLqTZhzpy98-168" value="操作数栈" style="text;html=1;align=center;verticalAlign=middle;resizable=0;points=[];autosize=1;strokeColor=none;fillColor=none;" parent="1" vertex="1"><mxGeometry x="-255" y="740" width="70" height="30" as="geometry"/></mxCell><mxCell id="gQs-8r4IaeLqTZhzpy98-170" value="&lt;span style=&quot;&quot;&gt;当前类常量&lt;/span&gt;&lt;br style=&quot;&quot;&gt;&lt;span style=&quot;&quot;&gt;池的引用&lt;/span&gt;" style="rounded=0;whiteSpace=wrap;html=1;strokeColor=#BD7000;fillColor=#f0a30a;fontColor=#000000;" parent="1" vertex="1"><mxGeometry x="-160" y="800" width="90" height="50" as="geometry"/></mxCell><mxCell id="gQs-8r4IaeLqTZhzpy98-171" style="rounded=0;orthogonalLoop=1;jettySize=auto;html=1;exitX=0.5;exitY=1;exitDx=0;exitDy=0;entryX=0.5;entryY=0;entryDx=0;entryDy=0;endArrow=classic;endFill=1;" parent="1" source="44" target="gQs-8r4IaeLqTZhzpy98-156" edge="1"><mxGeometry relative="1" as="geometry"/></mxCell><mxCell id="gQs-8r4IaeLqTZhzpy98-172" value="" style="rounded=0;whiteSpace=wrap;html=1;strokeColor=default;" parent="1" vertex="1"><mxGeometry y="286" width="120" height="354" as="geometry"/></mxCell><mxCell id="gQs-8r4IaeLqTZhzpy98-173" value="类型信息" style="rounded=0;whiteSpace=wrap;html=1;strokeColor=default;" parent="1" vertex="1"><mxGeometry x="10" y="310" width="100" height="35" as="geometry"/></mxCell><mxCell id="gQs-8r4IaeLqTZhzpy98-174" value="域信息" style="rounded=0;whiteSpace=wrap;html=1;strokeColor=default;" parent="1" vertex="1"><mxGeometry x="10" y="360" width="100" height="35" as="geometry"/></mxCell><mxCell id="gQs-8r4IaeLqTZhzpy98-175" value="方法信息" style="rounded=0;whiteSpace=wrap;html=1;strokeColor=default;" parent="1" vertex="1"><mxGeometry x="10" y="410" width="100" height="35" as="geometry"/></mxCell><mxCell id="gQs-8r4IaeLqTZhzpy98-177" value="" style="rounded=0;whiteSpace=wrap;html=1;strokeColor=default;" parent="1" vertex="1"><mxGeometry x="10" y="460" width="100" height="170" as="geometry"/></mxCell><mxCell id="gQs-8r4IaeLqTZhzpy98-178" style="edgeStyle=none;rounded=0;orthogonalLoop=1;jettySize=auto;html=1;exitX=0.014;exitY=0.789;exitDx=0;exitDy=0;endArrow=none;endFill=0;exitPerimeter=0;" parent="1" source="gQs-8r4IaeLqTZhzpy98-176" target="gQs-8r4IaeLqTZhzpy98-176" edge="1"><mxGeometry relative="1" as="geometry"/></mxCell><mxCell id="gQs-8r4IaeLqTZhzpy98-176" value="运行时常量池" style="text;html=1;align=center;verticalAlign=middle;resizable=0;points=[];autosize=1;strokeColor=none;fillColor=none;" parent="1" vertex="1"><mxGeometry x="10" y="465" width="100" height="30" as="geometry"/></mxCell><mxCell id="gQs-8r4IaeLqTZhzpy98-179" style="edgeStyle=none;rounded=0;orthogonalLoop=1;jettySize=auto;html=1;exitX=0;exitY=0.5;exitDx=0;exitDy=0;entryX=1;entryY=0.5;entryDx=0;entryDy=0;endArrow=none;endFill=0;" parent="1" source="gQs-8r4IaeLqTZhzpy98-177" target="gQs-8r4IaeLqTZhzpy98-177" edge="1"><mxGeometry relative="1" as="geometry"/></mxCell><mxCell id="gQs-8r4IaeLqTZhzpy98-180" value="。。。" style="text;html=1;align=center;verticalAlign=middle;resizable=0;points=[];autosize=1;strokeColor=none;fillColor=none;" parent="1" vertex="1"><mxGeometry x="30" y="495" width="60" height="30" as="geometry"/></mxCell><mxCell id="gQs-8r4IaeLqTZhzpy98-181" style="edgeStyle=none;rounded=0;orthogonalLoop=1;jettySize=auto;html=1;exitX=0;exitY=0.75;exitDx=0;exitDy=0;entryX=1;entryY=0.75;entryDx=0;entryDy=0;endArrow=none;endFill=0;startArrow=none;" parent="1" source="gQs-8r4IaeLqTZhzpy98-185" target="gQs-8r4IaeLqTZhzpy98-177" edge="1"><mxGeometry relative="1" as="geometry"/></mxCell><mxCell id="gQs-8r4IaeLqTZhzpy98-183" style="edgeStyle=none;rounded=0;orthogonalLoop=1;jettySize=auto;html=1;exitX=1;exitY=0;exitDx=0;exitDy=0;entryX=0.002;entryY=0.626;entryDx=0;entryDy=0;entryPerimeter=0;endArrow=classic;endFill=1;" parent="1" source="gQs-8r4IaeLqTZhzpy98-170" target="gQs-8r4IaeLqTZhzpy98-177" edge="1"><mxGeometry relative="1" as="geometry"/></mxCell><mxCell id="gQs-8r4IaeLqTZhzpy98-185" value="方法引用" style="rounded=0;whiteSpace=wrap;html=1;strokeColor=#005700;fillColor=#008a00;fontColor=#ffffff;" parent="1" vertex="1"><mxGeometry x="10" y="560" width="100" height="30" as="geometry"/></mxCell><mxCell id="gQs-8r4IaeLqTZhzpy98-187" value="" style="whiteSpace=wrap;html=1;strokeColor=default;" parent="1" vertex="1"><mxGeometry x="190" y="285" width="120" height="355" as="geometry"/></mxCell><mxCell id="gQs-8r4IaeLqTZhzpy98-188" style="edgeStyle=none;rounded=0;orthogonalLoop=1;jettySize=auto;html=1;exitX=0;exitY=0.25;exitDx=0;exitDy=0;entryX=1;entryY=0.25;entryDx=0;entryDy=0;endArrow=none;endFill=0;" parent="1" source="gQs-8r4IaeLqTZhzpy98-187" target="gQs-8r4IaeLqTZhzpy98-187" edge="1"><mxGeometry relative="1" as="geometry"/></mxCell><mxCell id="gQs-8r4IaeLqTZhzpy98-189" value="伊甸园区" style="text;html=1;align=center;verticalAlign=middle;resizable=0;points=[];autosize=1;strokeColor=none;fillColor=none;" parent="1" vertex="1"><mxGeometry x="215" y="310" width="70" height="30" as="geometry"/></mxCell><mxCell id="gQs-8r4IaeLqTZhzpy98-190" style="edgeStyle=none;rounded=0;orthogonalLoop=1;jettySize=auto;html=1;exitX=0;exitY=0.5;exitDx=0;exitDy=0;entryX=1;entryY=0.5;entryDx=0;entryDy=0;endArrow=none;endFill=0;" parent="1" source="gQs-8r4IaeLqTZhzpy98-187" target="gQs-8r4IaeLqTZhzpy98-187" edge="1"><mxGeometry relative="1" as="geometry"/></mxCell><mxCell id="gQs-8r4IaeLqTZhzpy98-191" value="幸存者&lt;br&gt;1区" style="text;html=1;align=center;verticalAlign=middle;resizable=0;points=[];autosize=1;strokeColor=none;fillColor=none;" parent="1" vertex="1"><mxGeometry x="190" y="395" width="60" height="40" as="geometry"/></mxCell><mxCell id="gQs-8r4IaeLqTZhzpy98-193" value="幸存者&lt;br&gt;0区" style="text;html=1;align=center;verticalAlign=middle;resizable=0;points=[];autosize=1;strokeColor=none;fillColor=none;" parent="1" vertex="1"><mxGeometry x="250" y="395" width="60" height="40" as="geometry"/></mxCell><mxCell id="gQs-8r4IaeLqTZhzpy98-194" value="老年代" style="text;html=1;align=center;verticalAlign=middle;resizable=0;points=[];autosize=1;strokeColor=none;fillColor=none;" parent="1" vertex="1"><mxGeometry x="220" y="530" width="60" height="30" as="geometry"/></mxCell><mxCell id="gQs-8r4IaeLqTZhzpy98-195" value="" style="endArrow=none;html=1;rounded=0;" parent="1" edge="1"><mxGeometry width="50" height="50" relative="1" as="geometry"><mxPoint x="254" y="463" as="sourcePoint"/><mxPoint x="254" y="373" as="targetPoint"/></mxGeometry></mxCell></root></mxGraphModel>